<?xml version="1.0" encoding="UTF-8"?>
<svg id="Capa_1" xmlns="http://www.w3.org/2000/svg" xmlns:xlink="http://www.w3.org/1999/xlink" version="1.1" viewBox="0 0 242.88 437.04">
  <!-- Generator: Adobe Illustrator 29.8.2, SVG Export Plug-In . SVG Version: 2.1.1 Build 3)  -->
  <defs>
    <style>
      .st0, .st1, .st2 {
        fill: none;
      }

      .st3 {
        font-size: 7.7px;
      }

      .st3, .st4 {
        font-family: LiberationSans-Bold, 'Liberation Sans';
        font-weight: 700;
      }

      .st5 {
        font-family: LiberationSans-Italic, 'Liberation Sans';
        font-style: italic;
      }

      .st5, .st6 {
        font-size: 6.3px;
      }

      .st7, .st6 {
        font-family: LiberationSans, 'Liberation Sans';
      }

      .st7, .st4 {
        font-size: 7px;
      }

      .st8 {
        fill: #fff;
      }

      .st1 {
        stroke: #36393d;
      }

      .st1, .st2 {
        stroke-width: .7px;
      }

      .st2 {
        stroke: #000;
        stroke-miterlimit: 10;
      }

      .st9 {
        fill: #eee;
      }

      .st10 {
        clip-path: url(#clippath);
      }
    </style>
    <clipPath id="clippath">
      <rect class="st0" x="3" y="5.25" width="237.75" height="426"/>
    </clipPath>
  </defs>
  <g class="st10">
    <rect class="st8" x="88.6" y="6.7" width="150.26" height="57.71"/>
    <path d="M88.25,6.99v-.64h1.05v.7h-.7v-.35h.35v.29h-.7ZM88.25,9.09v-.7h.7v.7h-.7ZM88.25,11.19v-.7h.7v.7h-.7ZM88.25,13.29v-.7h.7v.7h-.7ZM88.25,15.39v-.7h.7v.7h-.7ZM88.25,17.49v-.7h.7v.7h-.7ZM88.25,19.59v-.7h.7v.7h-.7ZM88.25,21.69v-.7h.7v.7h-.7ZM88.25,23.79v-.7h.7v.7h-.7ZM88.25,25.89v-.7h.7v.7h-.7ZM88.25,27.99v-.7h.7v.7h-.7ZM88.25,30.08v-.7h.7v.7h-.7ZM88.25,32.18v-.7h.7v.7h-.7ZM88.25,34.28v-.7h.7v.7h-.7ZM88.25,36.38v-.7h.7v.7h-.7ZM88.25,38.48v-.7h.7v.7h-.7ZM88.25,40.58v-.7h.7v.7h-.7ZM88.25,42.68v-.7h.7v.7h-.7ZM88.25,44.78v-.7h.7v.7h-.7ZM88.25,46.88v-.7h.7v.7h-.7ZM88.25,48.98v-.7h.7v.7h-.7ZM88.25,51.08v-.7h.7v.7h-.7ZM88.25,53.18v-.7h.7v.7h-.7ZM88.25,55.27v-.7h.7v.7h-.7ZM88.25,57.37v-.7h.7v.7h-.7ZM88.25,59.47v-.7h.7v.7h-.7ZM88.25,61.57v-.7h.7v.7h-.7ZM88.25,63.67v-.7h.7v.7h-.7ZM89.96,64.76h-.7v-.7h.7v.7ZM92.06,64.76h-.7v-.7h.7v.7ZM94.16,64.76h-.7v-.7h.7v.7ZM96.26,64.76h-.7v-.7h.7v.7ZM98.36,64.76h-.7v-.7h.7v.7ZM100.46,64.76h-.7v-.7h.7v.7ZM102.56,64.76h-.7v-.7h.7v.7ZM104.66,64.76h-.7v-.7h.7v.7ZM106.76,64.76h-.7v-.7h.7v.7ZM108.86,64.76h-.7v-.7h.7v.7ZM110.95,64.76h-.7v-.7h.7v.7ZM113.05,64.76h-.7v-.7h.7v.7ZM115.15,64.76h-.7v-.7h.7v.7ZM117.25,64.76h-.7v-.7h.7v.7ZM119.35,64.76h-.7v-.7h.7v.7ZM121.45,64.76h-.7v-.7h.7v.7ZM123.55,64.76h-.7v-.7h.7v.7ZM125.65,64.76h-.7v-.7h.7v.7ZM127.75,64.76h-.7v-.7h.7v.7ZM129.85,64.76h-.7v-.7h.7v.7ZM131.95,64.76h-.7v-.7h.7v.7ZM134.05,64.76h-.7v-.7h.7v.7ZM136.14,64.76h-.7v-.7h.7v.7ZM138.24,64.76h-.7v-.7h.7v.7ZM140.34,64.76h-.7v-.7h.7v.7ZM142.44,64.76h-.7v-.7h.7v.7ZM144.54,64.76h-.7v-.7h.7v.7ZM146.64,64.76h-.7v-.7h.7v.7ZM148.74,64.76h-.7v-.7h.7v.7ZM150.84,64.76h-.7v-.7h.7v.7ZM152.94,64.76h-.7v-.7h.7v.7ZM155.04,64.76h-.7v-.7h.7v.7ZM157.14,64.76h-.7v-.7h.7v.7ZM159.24,64.76h-.7v-.7h.7v.7ZM161.33,64.76h-.7v-.7h.7v.7ZM163.43,64.76h-.7v-.7h.7v.7ZM165.53,64.76h-.7v-.7h.7v.7ZM167.63,64.76h-.7v-.7h.7v.7ZM169.73,64.76h-.7v-.7h.7v.7ZM171.83,64.76h-.7v-.7h.7v.7ZM173.93,64.76h-.7v-.7h.7v.7ZM176.03,64.76h-.7v-.7h.7v.7ZM178.13,64.76h-.7v-.7h.7v.7ZM180.23,64.76h-.7v-.7h.7v.7ZM182.33,64.76h-.7v-.7h.7v.7ZM184.42,64.76h-.7v-.7h.7v.7ZM186.52,64.76h-.7v-.7h.7v.7ZM188.62,64.76h-.7v-.7h.7v.7ZM190.72,64.76h-.7v-.7h.7v.7ZM192.82,64.76h-.7v-.7h.7v.7ZM194.92,64.76h-.7v-.7h.7v.7ZM197.02,64.76h-.7v-.7h.7v.7ZM199.12,64.76h-.7v-.7h.7v.7ZM201.22,64.76h-.7v-.7h.7v.7ZM203.32,64.76h-.7v-.7h.7v.7ZM205.42,64.76h-.7v-.7h.7v.7ZM207.52,64.76h-.7v-.7h.7v.7ZM209.61,64.76h-.7v-.7h.7v.7ZM211.71,64.76h-.7v-.7h.7v.7ZM213.81,64.76h-.7v-.7h.7v.7ZM215.91,64.76h-.7v-.7h.7v.7ZM218.01,64.76h-.7v-.7h.7v.7ZM220.11,64.76h-.7v-.7h.7v.7ZM222.21,64.76h-.7v-.7h.7v.7ZM224.31,64.76h-.7v-.7h.7v.7ZM226.41,64.76h-.7v-.7h.7v.7ZM228.51,64.76h-.7v-.7h.7v.7ZM230.61,64.76h-.7v-.7h.7v.7ZM232.71,64.76h-.7v-.7h.7v.7ZM234.8,64.76h-.7v-.7h.7v.7ZM236.9,64.76h-.7v-.7h.7v.7ZM239.21,64.26v.5h-.9v-.7h.55v.35h-.35v-.15h.7ZM239.21,62.16v.7h-.7v-.7h.7ZM239.21,60.06v.7h-.7v-.7h.7ZM239.21,57.96v.7h-.7v-.7h.7ZM239.21,55.86v.7h-.7v-.7h.7ZM239.21,53.76v.7h-.7v-.7h.7ZM239.21,51.66v.7h-.7v-.7h.7ZM239.21,49.56v.7h-.7v-.7h.7ZM239.21,47.47v.7h-.7v-.7h.7ZM239.21,45.37v.7h-.7v-.7h.7ZM239.21,43.27v.7h-.7v-.7h.7ZM239.21,41.17v.7h-.7v-.7h.7ZM239.21,39.07v.7h-.7v-.7h.7ZM239.21,36.97v.7h-.7v-.7h.7ZM239.21,34.87v.7h-.7v-.7h.7ZM239.21,32.77v.7h-.7v-.7h.7ZM239.21,30.67v.7h-.7v-.7h.7ZM239.21,28.57v.7h-.7v-.7h.7ZM239.21,26.47v.7h-.7v-.7h.7ZM239.21,24.37v.7h-.7v-.7h.7ZM239.21,22.28v.7h-.7v-.7h.7ZM239.21,20.18v.7h-.7v-.7h.7ZM239.21,18.08v.7h-.7v-.7h.7ZM239.21,15.98v.7h-.7v-.7h.7ZM239.21,13.88v.7h-.7v-.7h.7ZM239.21,11.78v.7h-.7v-.7h.7ZM239.21,9.68v.7h-.7v-.7h.7ZM239.21,7.58v.7h-.7v-.7h.7ZM237.64,6.35h.7v.7h-.7v-.7ZM235.54,6.35h.7v.7h-.7v-.7ZM233.44,6.35h.7v.7h-.7v-.7ZM231.34,6.35h.7v.7h-.7v-.7ZM229.24,6.35h.7v.7h-.7v-.7ZM227.14,6.35h.7v.7h-.7v-.7ZM225.04,6.35h.7v.7h-.7v-.7ZM222.94,6.35h.7v.7h-.7v-.7ZM220.85,6.35h.7v.7h-.7v-.7ZM218.75,6.35h.7v.7h-.7v-.7ZM216.65,6.35h.7v.7h-.7v-.7ZM214.55,6.35h.7v.7h-.7v-.7ZM212.45,6.35h.7v.7h-.7v-.7ZM210.35,6.35h.7v.7h-.7v-.7ZM208.25,6.35h.7v.7h-.7v-.7ZM206.15,6.35h.7v.7h-.7v-.7ZM204.05,6.35h.7v.7h-.7v-.7ZM201.95,6.35h.7v.7h-.7v-.7ZM199.85,6.35h.7v.7h-.7v-.7ZM197.75,6.35h.7v.7h-.7v-.7ZM195.66,6.35h.7v.7h-.7v-.7ZM193.56,6.35h.7v.7h-.7v-.7ZM191.46,6.35h.7v.7h-.7v-.7ZM189.36,6.35h.7v.7h-.7v-.7ZM187.26,6.35h.7v.7h-.7v-.7ZM185.16,6.35h.7v.7h-.7v-.7ZM183.06,6.35h.7v.7h-.7v-.7ZM180.96,6.35h.7v.7h-.7v-.7ZM178.86,6.35h.7v.7h-.7v-.7ZM176.76,6.35h.7v.7h-.7v-.7ZM174.66,6.35h.7v.7h-.7v-.7ZM172.56,6.35h.7v.7h-.7v-.7ZM170.47,6.35h.7v.7h-.7v-.7ZM168.37,6.35h.7v.7h-.7v-.7ZM166.27,6.35h.7v.7h-.7v-.7ZM164.17,6.35h.7v.7h-.7v-.7ZM162.07,6.35h.7v.7h-.7v-.7ZM159.97,6.35h.7v.7h-.7v-.7ZM157.87,6.35h.7v.7h-.7v-.7ZM155.77,6.35h.7v.7h-.7v-.7ZM153.67,6.35h.7v.7h-.7v-.7ZM151.57,6.35h.7v.7h-.7v-.7ZM149.47,6.35h.7v.7h-.7v-.7ZM147.37,6.35h.7v.7h-.7v-.7ZM145.28,6.35h.7v.7h-.7v-.7ZM143.18,6.35h.7v.7h-.7v-.7ZM141.08,6.35h.7v.7h-.7v-.7ZM138.98,6.35h.7v.7h-.7v-.7ZM136.88,6.35h.7v.7h-.7v-.7ZM134.78,6.35h.7v.7h-.7v-.7ZM132.68,6.35h.7v.7h-.7v-.7ZM130.58,6.35h.7v.7h-.7v-.7ZM128.48,6.35h.7v.7h-.7v-.7ZM126.38,6.35h.7v.7h-.7v-.7ZM124.28,6.35h.7v.7h-.7v-.7ZM122.18,6.35h.7v.7h-.7v-.7ZM120.09,6.35h.7v.7h-.7v-.7ZM117.99,6.35h.7v.7h-.7v-.7ZM115.89,6.35h.7v.7h-.7v-.7ZM113.79,6.35h.7v.7h-.7v-.7ZM111.69,6.35h.7v.7h-.7v-.7ZM109.59,6.35h.7v.7h-.7v-.7ZM107.49,6.35h.7v.7h-.7v-.7ZM105.39,6.35h.7v.7h-.7v-.7ZM103.29,6.35h.7v.7h-.7v-.7ZM101.19,6.35h.7v.7h-.7v-.7ZM99.09,6.35h.7v.7h-.7v-.7ZM97,6.35h.7v.7h-.7v-.7ZM94.9,6.35h.7v.7h-.7v-.7ZM92.8,6.35h.7v.7h-.7v-.7ZM90.7,6.35h.7v.7h-.7v-.7Z"/>
    <path class="st8" d="M127.66,45.17h-23.2c-2.57,0-3.85-1.28-3.85-3.85v-8.85c0-2.57,1.26-4.06,3.79-4.49l46.5-7.82c2.53-.42,3.79.65,3.79,3.21v17.95c0,2.57-1.28,3.85-3.85,3.85h-23.2Z"/>
    <path class="st2" d="M127.66,45.17h-23.2c-2.57,0-3.85-1.28-3.85-3.85v-8.85c0-2.57,1.26-4.06,3.79-4.49l46.5-7.82c2.53-.42,3.79.65,3.79,3.21v17.95c0,2.57-1.28,3.85-3.85,3.85h-23.2Z"/>
    <text class="st6" transform="translate(117.27 35.04)"><tspan x="0" y="0">h1.bed</tspan></text>
    <path class="st8" d="M199.79,45.17h-23.2c-2.57,0-3.85-1.28-3.85-3.85v-8.85c0-2.57,1.27-4.06,3.8-4.49l46.5-7.82c2.53-.42,3.79.65,3.79,3.21v17.95c0,2.57-1.28,3.85-3.85,3.85h-23.2Z"/>
    <path class="st2" d="M199.79,45.17h-23.2c-2.57,0-3.85-1.28-3.85-3.85v-8.85c0-2.57,1.27-4.06,3.8-4.49l46.5-7.82c2.53-.42,3.79.65,3.79,3.21v17.95c0,2.57-1.28,3.85-3.85,3.85h-23.2Z"/>
    <text class="st6" transform="translate(190.04 35.04)"><tspan x="0" y="0">h2.bed</tspan></text>
    <path class="st8" d="M55.05,19.53c1.93,0,3.5,1.56,3.5,3.5v19.07c-9.02-3.69-18.03-3.69-27.05,0-9.01,3.69-18.03,3.69-27.04,0v-19.49.43c0-1.94,1.57-3.5,3.5-3.5h47.1Z"/>
    <path class="st2" d="M55.05,19.53c1.93,0,3.5,1.56,3.5,3.5v19.07c-9.02-3.69-18.03-3.69-27.05,0-9.01,3.69-18.03,3.69-27.04,0v-19.49.43c0-1.94,1.57-3.5,3.5-3.5h47.1Z"/>
    <text class="st6" transform="translate(10.73 35.04)"><tspan x="0" y="0">ref_genome.fa</tspan></text>
    <text class="st5" transform="translate(111.82 60.23)"><tspan x="0" y="0">Manual stage haplotypes instructions</tspan></text>
    <path class="st9" d="M75.46,86.55h86.37c.32,0,.64.03.96.09.32.06.62.16.92.28.3.12.58.27.85.45.27.18.51.38.74.61.23.23.43.47.61.74.18.27.33.55.45.85s.22.6.28.92c.06.32.09.63.09.96v6.73c0,.32-.03.64-.09.96-.06.32-.16.62-.28.92-.12.3-.27.58-.45.85-.18.27-.38.51-.61.74-.23.23-.47.43-.74.61-.27.18-.55.33-.85.45-.3.12-.6.22-.92.28-.32.06-.63.09-.96.09h-86.37c-.32,0-.64-.03-.96-.09-.32-.06-.62-.16-.92-.28-.3-.12-.58-.27-.85-.45-.27-.18-.51-.38-.74-.61s-.43-.47-.61-.74c-.18-.27-.33-.55-.45-.85-.12-.3-.22-.6-.28-.92-.06-.32-.09-.63-.09-.96v-6.73c0-.32.03-.64.09-.96.06-.32.16-.62.28-.92.12-.3.27-.58.45-.85s.38-.51.61-.74c.23-.23.47-.43.74-.61s.55-.33.85-.45c.3-.12.6-.22.92-.28.32-.06.63-.09.96-.09Z"/>
    <path class="st1" d="M75.46,86.55h86.37c.32,0,.64.03.96.09.32.06.62.16.92.28.3.12.58.27.85.45.27.18.51.38.74.61.23.23.43.47.61.74.18.27.33.55.45.85s.22.6.28.92c.06.32.09.63.09.96v6.73c0,.32-.03.64-.09.96-.06.32-.16.62-.28.92-.12.3-.27.58-.45.85-.18.27-.38.51-.61.74-.23.23-.47.43-.74.61-.27.18-.55.33-.85.45-.3.12-.6.22-.92.28-.32.06-.63.09-.96.09h-86.37c-.32,0-.64-.03-.96-.09-.32-.06-.62-.16-.92-.28-.3-.12-.58-.27-.85-.45-.27-.18-.51-.38-.74-.61s-.43-.47-.61-.74c-.18-.27-.33-.55-.45-.85-.12-.3-.22-.6-.28-.92-.06-.32-.09-.63-.09-.96v-6.73c0-.32.03-.64.09-.96.06-.32.16-.62.28-.92.12-.3.27-.58.45-.85s.38-.51.61-.74c.23-.23.47-.43.74-.61s.55-.33.85-.45c.3-.12.6-.22.92-.28.32-.06.63-.09.96-.09Z"/>
    <text class="st3" transform="translate(94.07 97.31)"><tspan x="0" y="0">VISOR-HACk</tspan></text>
    <polyline class="st2" points="163.73 64.41 163.71 75.48 142.71 75.48 142.7 82.09"/>
    <polygon points="142.69 85.77 140.26 80.87 142.7 82.09 145.16 80.88 142.69 85.77"/>
    <polygon class="st2" points="142.69 85.77 140.26 80.87 142.7 82.09 145.16 80.88 142.69 85.77"/>
    <polyline class="st2" points="30.85 42.63 30.83 75.27 94.64 75.27 94.62 82.09"/>
    <polygon points="94.61 85.77 92.18 80.86 94.62 82.09 97.08 80.88 94.61 85.77"/>
    <polygon class="st2" points="94.61 85.77 92.18 80.86 94.62 82.09 97.08 80.88 94.61 85.77"/>
    <polyline class="st2" points="118.65 103.08 118.64 114.25 79.6 114.25 79.59 120.94"/>
    <polygon points="79.58 124.61 77.14 119.71 79.59 120.94 82.04 119.72 79.58 124.61"/>
    <polygon class="st2" points="79.58 124.61 77.14 119.71 79.59 120.94 82.04 119.72 79.58 124.61"/>
    <path class="st9" d="M183.65,132.39h50.31c.32,0,.64.03.96.09s.62.16.92.28c.3.12.58.27.85.45.27.18.51.38.74.61.23.23.43.47.61.74.18.27.33.55.45.85.12.3.22.6.28.92.06.32.09.63.09.96v8.1c0,.32-.03.64-.09.96-.06.32-.16.62-.28.92-.12.3-.27.58-.45.85-.18.27-.38.51-.61.74-.23.23-.47.43-.74.61-.27.18-.55.33-.85.45-.3.12-.6.22-.92.28s-.63.09-.96.09h-50.31c-.32,0-.64-.03-.96-.09-.32-.06-.62-.16-.92-.28-.3-.12-.58-.27-.85-.45-.27-.18-.51-.38-.74-.61-.23-.23-.43-.47-.61-.74-.18-.27-.33-.55-.45-.85-.12-.3-.22-.6-.28-.92-.06-.32-.09-.63-.09-.96v-8.1c0-.32.03-.64.09-.96.06-.32.16-.62.28-.92.12-.3.27-.58.45-.85.18-.27.38-.51.61-.74.23-.23.47-.43.74-.61.27-.18.55-.33.85-.45.3-.12.6-.22.92-.28s.63-.09.96-.09Z"/>
    <path class="st1" d="M183.65,132.39h50.31c.32,0,.64.03.96.09s.62.16.92.28c.3.12.58.27.85.45.27.18.51.38.74.61.23.23.43.47.61.74.18.27.33.55.45.85.12.3.22.6.28.92.06.32.09.63.09.96v8.1c0,.32-.03.64-.09.96-.06.32-.16.62-.28.92-.12.3-.27.58-.45.85-.18.27-.38.51-.61.74-.23.23-.47.43-.74.61-.27.18-.55.33-.85.45-.3.12-.6.22-.92.28s-.63.09-.96.09h-50.31c-.32,0-.64-.03-.96-.09-.32-.06-.62-.16-.92-.28-.3-.12-.58-.27-.85-.45-.27-.18-.51-.38-.74-.61-.23-.23-.43-.47-.61-.74-.18-.27-.33-.55-.45-.85-.12-.3-.22-.6-.28-.92-.06-.32-.09-.63-.09-.96v-8.1c0-.32.03-.64.09-.96.06-.32.16-.62.28-.92.12-.3.27-.58.45-.85.18-.27.38-.51.61-.74.23-.23.47-.43.74-.61.27-.18.55-.33.85-.45.3-.12.6-.22.92-.28s.63-.09.96-.09Z"/>
    <text class="st3" transform="translate(190.44 143.49)"><tspan x="0" y="0">makeBED</tspan></text>
    <path class="st8" d="M232.36,177.09c1.93,0,3.5,1.57,3.5,3.5v19.07c-9.02-3.69-18.03-3.69-27.05,0-9.02,3.69-18.03,3.69-27.04,0v-19.49.42c0-1.93,1.57-3.5,3.5-3.5h47.1Z"/>
    <path class="st2" d="M232.36,177.09c1.93,0,3.5,1.57,3.5,3.5v19.07c-9.02-3.69-18.03-3.69-27.05,0-9.02,3.69-18.03,3.69-27.04,0v-19.49.42c0-1.93,1.57-3.5,3.5-3.5h47.1Z"/>
    <text class="st6" transform="translate(191.95 192.48)"><tspan x="0" y="0">LASeR.bed</tspan></text>
    <path class="st9" d="M75.46,244.31h86.37c.32,0,.64.03.96.09.32.06.62.16.92.28.3.12.58.27.85.45.27.18.51.38.74.61.23.23.43.47.61.74.18.27.33.55.45.85.12.3.22.6.28.92.06.32.09.63.09.96v6.64c0,.32-.03.64-.09.96-.06.32-.16.62-.28.92-.12.3-.27.58-.45.85-.18.27-.38.51-.61.74-.23.23-.47.43-.74.61-.27.18-.55.33-.85.45-.3.12-.6.22-.92.28-.32.06-.63.09-.96.09h-86.37c-.32,0-.64-.03-.96-.09-.32-.06-.62-.16-.92-.28-.3-.12-.58-.27-.85-.45-.27-.18-.51-.38-.74-.61-.23-.23-.43-.47-.61-.74-.18-.27-.33-.55-.45-.85-.12-.3-.22-.6-.28-.92-.06-.32-.09-.63-.09-.96v-6.64c0-.32.03-.64.09-.96.06-.32.16-.62.28-.92.12-.3.27-.58.45-.85s.38-.51.61-.74c.23-.23.47-.43.74-.61s.55-.33.85-.45c.3-.12.6-.22.92-.28.32-.06.63-.09.96-.09Z"/>
    <path class="st1" d="M75.46,244.31h86.37c.32,0,.64.03.96.09.32.06.62.16.92.28.3.12.58.27.85.45.27.18.51.38.74.61.23.23.43.47.61.74.18.27.33.55.45.85.12.3.22.6.28.92.06.32.09.63.09.96v6.64c0,.32-.03.64-.09.96-.06.32-.16.62-.28.92-.12.3-.27.58-.45.85-.18.27-.38.51-.61.74-.23.23-.47.43-.74.61-.27.18-.55.33-.85.45-.3.12-.6.22-.92.28-.32.06-.63.09-.96.09h-86.37c-.32,0-.64-.03-.96-.09-.32-.06-.62-.16-.92-.28-.3-.12-.58-.27-.85-.45-.27-.18-.51-.38-.74-.61-.23-.23-.43-.47-.61-.74-.18-.27-.33-.55-.45-.85-.12-.3-.22-.6-.28-.92-.06-.32-.09-.63-.09-.96v-6.64c0-.32.03-.64.09-.96.06-.32.16-.62.28-.92.12-.3.27-.58.45-.85s.38-.51.61-.74c.23-.23.47-.43.74-.61s.55-.33.85-.45c.3-.12.6-.22.92-.28.32-.06.63-.09.96-.09Z"/>
    <text class="st3" transform="translate(91.93 254.75)"><tspan x="0" y="0">VISOR-LASeR</tspan></text>
    <path class="st9" d="M9.35,359.32h38.29c.32,0,.64.03.96.09.32.06.62.16.92.28.3.12.58.27.85.45.27.18.51.38.74.61.23.23.43.47.61.74.18.27.33.55.45.85s.22.6.28.92c.06.32.09.63.09.96v4.95c0,.32-.03.64-.09.96-.06.32-.16.62-.28.92-.12.3-.27.58-.45.85-.18.27-.38.51-.61.74-.23.23-.47.43-.74.61-.27.18-.55.33-.85.45-.3.12-.6.22-.92.28-.32.06-.63.09-.96.09H9.35c-.32,0-.64-.03-.96-.09-.32-.06-.62-.16-.92-.28-.3-.12-.58-.27-.85-.45-.27-.18-.51-.38-.74-.61-.23-.23-.43-.47-.61-.74-.18-.27-.33-.55-.45-.85-.12-.3-.22-.6-.28-.92-.06-.32-.09-.63-.09-.96v-4.95c0-.32.03-.64.09-.96.06-.32.16-.62.28-.92.12-.3.27-.58.45-.85.18-.27.38-.51.61-.74.23-.23.47-.43.74-.61.27-.18.55-.33.85-.45.3-.12.6-.22.92-.28.32-.06.63-.09.96-.09Z"/>
    <path class="st1" d="M9.35,359.32h38.29c.32,0,.64.03.96.09.32.06.62.16.92.28.3.12.58.27.85.45.27.18.51.38.74.61.23.23.43.47.61.74.18.27.33.55.45.85s.22.6.28.92c.06.32.09.63.09.96v4.95c0,.32-.03.64-.09.96-.06.32-.16.62-.28.92-.12.3-.27.58-.45.85-.18.27-.38.51-.61.74-.23.23-.47.43-.74.61-.27.18-.55.33-.85.45-.3.12-.6.22-.92.28-.32.06-.63.09-.96.09H9.35c-.32,0-.64-.03-.96-.09-.32-.06-.62-.16-.92-.28-.3-.12-.58-.27-.85-.45-.27-.18-.51-.38-.74-.61-.23-.23-.43-.47-.61-.74-.18-.27-.33-.55-.45-.85-.12-.3-.22-.6-.28-.92-.06-.32-.09-.63-.09-.96v-4.95c0-.32.03-.64.09-.96.06-.32.16-.62.28-.92.12-.3.27-.58.45-.85.18-.27.38-.51.61-.74.23-.23.47-.43.74-.61.27-.18.55-.33.85-.45.3-.12.6-.22.92-.28.32-.06.63-.09.96-.09Z"/>
    <text class="st4" transform="translate(15.6 368.8)"><tspan x="0" y="0">Sniffles</tspan></text>
    <path class="st9" d="M69.45,359.32h38.29c.32,0,.64.03.96.09.32.06.62.16.92.28.3.12.58.27.85.45.27.18.51.38.74.61.23.23.43.47.61.74.18.27.33.55.45.85.12.3.22.6.28.92.06.32.09.63.09.96v4.95c0,.32-.03.64-.09.96-.06.32-.16.62-.28.92-.12.3-.27.58-.45.85-.18.27-.38.51-.61.74-.23.23-.47.43-.74.61-.27.18-.55.33-.85.45-.3.12-.6.22-.92.28-.32.06-.63.09-.96.09h-38.29c-.32,0-.64-.03-.96-.09-.32-.06-.62-.16-.92-.28-.3-.12-.58-.27-.85-.45-.27-.18-.51-.38-.74-.61-.23-.23-.43-.47-.61-.74-.18-.27-.33-.55-.45-.85-.12-.3-.22-.6-.28-.92-.06-.32-.09-.63-.09-.96v-4.95c0-.32.03-.64.09-.96.06-.32.16-.62.28-.92.12-.3.27-.58.45-.85.18-.27.38-.51.61-.74.23-.23.47-.43.74-.61.27-.18.55-.33.85-.45.3-.12.6-.22.92-.28.32-.06.63-.09.96-.09Z"/>
    <path class="st1" d="M69.45,359.32h38.29c.32,0,.64.03.96.09.32.06.62.16.92.28.3.12.58.27.85.45.27.18.51.38.74.61.23.23.43.47.61.74.18.27.33.55.45.85.12.3.22.6.28.92.06.32.09.63.09.96v4.95c0,.32-.03.64-.09.96-.06.32-.16.62-.28.92-.12.3-.27.58-.45.85-.18.27-.38.51-.61.74-.23.23-.47.43-.74.61-.27.18-.55.33-.85.45-.3.12-.6.22-.92.28-.32.06-.63.09-.96.09h-38.29c-.32,0-.64-.03-.96-.09-.32-.06-.62-.16-.92-.28-.3-.12-.58-.27-.85-.45-.27-.18-.51-.38-.74-.61-.23-.23-.43-.47-.61-.74-.18-.27-.33-.55-.45-.85-.12-.3-.22-.6-.28-.92-.06-.32-.09-.63-.09-.96v-4.95c0-.32.03-.64.09-.96.06-.32.16-.62.28-.92.12-.3.27-.58.45-.85.18-.27.38-.51.61-.74.23-.23.47-.43.74-.61.27-.18.55-.33.85-.45.3-.12.6-.22.92-.28.32-.06.63-.09.96-.09Z"/>
    <text class="st4" transform="translate(74.79 368.8)"><tspan x="0" y="0">Severus</tspan></text>
    <path class="st9" d="M129.55,359.32h38.29c.32,0,.64.03.96.09.32.06.62.16.92.28.3.12.58.27.85.45.27.18.51.38.74.61.23.23.43.47.61.74.18.27.33.55.45.85s.22.6.28.92c.06.32.09.63.09.96v4.95c0,.32-.03.64-.09.96-.06.32-.16.62-.28.92-.12.3-.27.58-.45.85-.18.27-.38.51-.61.74-.23.23-.47.43-.74.61-.27.18-.55.33-.85.45-.3.12-.6.22-.92.28-.32.06-.63.09-.96.09h-38.29c-.32,0-.64-.03-.96-.09-.32-.06-.62-.16-.92-.28-.3-.12-.58-.27-.85-.45-.27-.18-.51-.38-.74-.61-.23-.23-.43-.47-.61-.74-.18-.27-.33-.55-.45-.85-.12-.3-.22-.6-.28-.92-.06-.32-.09-.63-.09-.96v-4.95c0-.32.03-.64.09-.96.06-.32.16-.62.28-.92s.27-.58.45-.85c.18-.27.38-.51.61-.74.23-.23.47-.43.74-.61.27-.18.55-.33.85-.45.3-.12.6-.22.92-.28.32-.06.63-.09.96-.09Z"/>
    <path class="st1" d="M129.55,359.32h38.29c.32,0,.64.03.96.09.32.06.62.16.92.28.3.12.58.27.85.45.27.18.51.38.74.61.23.23.43.47.61.74.18.27.33.55.45.85s.22.6.28.92c.06.32.09.63.09.96v4.95c0,.32-.03.64-.09.96-.06.32-.16.62-.28.92-.12.3-.27.58-.45.85-.18.27-.38.51-.61.74-.23.23-.47.43-.74.61-.27.18-.55.33-.85.45-.3.12-.6.22-.92.28-.32.06-.63.09-.96.09h-38.29c-.32,0-.64-.03-.96-.09-.32-.06-.62-.16-.92-.28-.3-.12-.58-.27-.85-.45-.27-.18-.51-.38-.74-.61-.23-.23-.43-.47-.61-.74-.18-.27-.33-.55-.45-.85-.12-.3-.22-.6-.28-.92-.06-.32-.09-.63-.09-.96v-4.95c0-.32.03-.64.09-.96.06-.32.16-.62.28-.92s.27-.58.45-.85c.18-.27.38-.51.61-.74.23-.23.47-.43.74-.61.27-.18.55-.33.85-.45.3-.12.6-.22.92-.28.32-.06.63-.09.96-.09Z"/>
    <text class="st4" transform="translate(134.34 368.8)"><tspan x="0" y="0">SA</tspan></text>
    <text class="st4" transform="translate(143.54 368.8)"><tspan x="0" y="0">V</tspan></text>
    <text class="st4" transform="translate(147.68 368.8)"><tspan x="0" y="0">ANA</tspan></text>
    <path class="st9" d="M189.66,359.32h38.29c.32,0,.64.03.96.09.32.06.62.16.92.28.3.12.58.27.85.45.27.18.51.38.74.61.23.23.43.47.61.74.18.27.33.55.45.85.12.3.22.6.28.92.06.32.09.63.09.96v4.95c0,.32-.03.64-.09.96-.06.32-.16.62-.28.92-.12.3-.27.58-.45.85-.18.27-.38.51-.61.74-.23.23-.47.43-.74.61-.27.18-.55.33-.85.45-.3.12-.6.22-.92.28-.32.06-.63.09-.96.09h-38.29c-.32,0-.64-.03-.96-.09-.32-.06-.62-.16-.92-.28s-.58-.27-.85-.45c-.27-.18-.51-.38-.74-.61-.23-.23-.43-.47-.61-.74-.18-.27-.33-.55-.45-.85-.12-.3-.22-.6-.28-.92-.06-.32-.09-.63-.09-.96v-4.95c0-.32.03-.64.09-.96.06-.32.16-.62.28-.92.12-.3.27-.58.45-.85.18-.27.38-.51.61-.74.23-.23.47-.43.74-.61.27-.18.55-.33.85-.45.3-.12.6-.22.92-.28.32-.06.63-.09.96-.09Z"/>
    <path class="st1" d="M189.66,359.32h38.29c.32,0,.64.03.96.09.32.06.62.16.92.28.3.12.58.27.85.45.27.18.51.38.74.61.23.23.43.47.61.74.18.27.33.55.45.85.12.3.22.6.28.92.06.32.09.63.09.96v4.95c0,.32-.03.64-.09.96-.06.32-.16.62-.28.92-.12.3-.27.58-.45.85-.18.27-.38.51-.61.74-.23.23-.47.43-.74.61-.27.18-.55.33-.85.45-.3.12-.6.22-.92.28-.32.06-.63.09-.96.09h-38.29c-.32,0-.64-.03-.96-.09-.32-.06-.62-.16-.92-.28s-.58-.27-.85-.45c-.27-.18-.51-.38-.74-.61-.23-.23-.43-.47-.61-.74-.18-.27-.33-.55-.45-.85-.12-.3-.22-.6-.28-.92-.06-.32-.09-.63-.09-.96v-4.95c0-.32.03-.64.09-.96.06-.32.16-.62.28-.92.12-.3.27-.58.45-.85.18-.27.38-.51.61-.74.23-.23.47-.43.74-.61.27-.18.55-.33.85-.45.3-.12.6-.22.92-.28.32-.06.63-.09.96-.09Z"/>
    <text class="st4" transform="translate(196 368.8)"><tspan x="0" y="0">SV</tspan></text>
    <text class="st4" transform="translate(205.21 368.8)"><tspan x="0" y="0">ision</tspan></text>
    <polyline class="st2" points="154.71 170.68 167.06 171.06 167.06 141.33 174.29 141.33"/>
    <polygon points="177.97 141.34 173.07 143.78 174.29 141.33 173.08 138.88 177.97 141.34"/>
    <polygon class="st2" points="177.97 141.34 173.07 143.78 174.29 141.33 173.08 138.88 177.97 141.34"/>
    <polyline class="st2" points="79.58 218.76 79.95 231.94 94.64 231.94 94.62 239.85"/>
    <polygon points="94.61 243.53 92.17 238.62 94.62 239.85 97.07 238.64 94.61 243.53"/>
    <polygon class="st2" points="94.61 243.53 92.17 238.62 94.62 239.85 97.07 238.64 94.61 243.53"/>
    <line class="st2" x1="208.8" y1="150.29" x2="208.8" y2="172.64"/>
    <polygon points="208.8 176.31 206.35 171.41 208.8 172.64 211.25 171.41 208.8 176.31"/>
    <polygon class="st2" points="208.8 176.31 206.35 171.41 208.8 172.64 211.25 171.41 208.8 176.31"/>
    <polyline class="st2" points="208.7 198.74 208.7 229.63 142.71 229.63 142.7 239.85"/>
    <polygon points="142.69 243.53 140.25 238.63 142.7 239.85 145.15 238.64 142.69 243.53"/>
    <polygon class="st2" points="142.69 243.53 140.25 238.63 142.7 239.85 145.15 238.64 142.69 243.53"/>
    <line class="st2" x1="118.65" y1="260.75" x2="118.65" y2="277.24"/>
    <polygon points="118.65 280.91 116.2 276.01 118.65 277.24 121.1 276.01 118.65 280.91"/>
    <polygon class="st2" points="118.65 280.91 116.2 276.01 118.65 277.24 121.1 276.01 118.65 280.91"/>
    <polyline class="st2" points="73.57 339.45 73.58 349.35 28.52 349.35 28.51 354.87"/>
    <polygon points="28.49 358.54 26.06 353.63 28.51 354.87 30.96 353.65 28.49 358.54"/>
    <polygon class="st2" points="28.49 358.54 26.06 353.63 28.51 354.87 30.96 353.65 28.49 358.54"/>
    <polyline class="st2" points="104.08 339.34 104.09 349.35 88.63 349.35 88.61 354.87"/>
    <polygon points="88.6 358.54 86.16 353.63 88.61 354.87 91.06 353.65 88.6 358.54"/>
    <polygon class="st2" points="88.6 358.54 86.16 353.63 88.61 354.87 91.06 353.65 88.6 358.54"/>
    <polyline class="st2" points="133.07 339.16 133.06 349.35 148.73 349.35 148.71 354.87"/>
    <polygon points="148.7 358.54 146.27 353.63 148.71 354.87 151.17 353.65 148.7 358.54"/>
    <polygon class="st2" points="148.7 358.54 146.27 353.63 148.71 354.87 151.17 353.65 148.7 358.54"/>
    <polyline class="st2" points="164.33 339.39 164.34 349.28 208.84 349.28 208.82 354.87"/>
    <polygon points="208.8 358.54 206.38 353.63 208.82 354.87 211.27 353.65 208.8 358.54"/>
    <polygon class="st2" points="208.8 358.54 206.38 353.63 208.82 354.87 211.27 353.65 208.8 358.54"/>
    <rect class="st8" x="4.45" y="125.39" width="150.26" height="96.17"/>
    <path d="M4.45,125.04h.7v.7h-.7v-.7ZM4.1,127.04v-.7h.7v.7h-.7ZM4.1,129.14v-.7h.7v.7h-.7ZM4.1,131.24v-.7h.7v.7h-.7ZM4.1,133.34v-.7h.7v.7h-.7ZM4.1,135.44v-.7h.7v.7h-.7ZM4.1,137.54v-.7h.7v.7h-.7ZM4.1,139.64v-.7h.7v.7h-.7ZM4.1,141.74v-.7h.7v.7h-.7ZM4.1,143.84v-.7h.7v.7h-.7ZM4.1,145.94v-.7h.7v.7h-.7ZM4.1,148.04v-.7h.7v.7h-.7ZM4.1,150.14v-.7h.7v.7h-.7ZM4.1,152.23v-.7h.7v.7h-.7ZM4.1,154.33v-.7h.7v.7h-.7ZM4.1,156.43v-.7h.7v.7h-.7ZM4.1,158.53v-.7h.7v.7h-.7ZM4.1,160.63v-.7h.7v.7h-.7ZM4.1,162.73v-.7h.7v.7h-.7ZM4.1,164.83v-.7h.7v.7h-.7ZM4.1,166.93v-.7h.7v.7h-.7ZM4.1,169.03v-.7h.7v.7h-.7ZM4.1,171.13v-.7h.7v.7h-.7ZM4.1,173.23v-.7h.7v.7h-.7ZM4.1,175.32v-.7h.7v.7h-.7ZM4.1,177.42v-.7h.7v.7h-.7ZM4.1,179.52v-.7h.7v.7h-.7ZM4.1,181.62v-.7h.7v.7h-.7ZM4.1,183.72v-.7h.7v.7h-.7ZM4.1,185.82v-.7h.7v.7h-.7ZM4.1,187.92v-.7h.7v.7h-.7ZM4.1,190.02v-.7h.7v.7h-.7ZM4.1,192.12v-.7h.7v.7h-.7ZM4.1,194.22v-.7h.7v.7h-.7ZM4.1,196.32v-.7h.7v.7h-.7ZM4.1,198.42v-.7h.7v.7h-.7ZM4.1,200.51v-.7h.7v.7h-.7ZM4.1,202.61v-.7h.7v.7h-.7ZM4.1,204.71v-.7h.7v.7h-.7ZM4.1,206.81v-.7h.7v.7h-.7ZM4.1,208.91v-.7h.7v.7h-.7ZM4.1,211.01v-.7h.7v.7h-.7ZM4.1,213.11v-.7h.7v.7h-.7ZM4.1,215.21v-.7h.7v.7h-.7ZM4.1,217.31v-.7h.7v.7h-.7ZM4.1,219.41v-.7h.7v.7h-.7ZM4.1,221.51v-.7h.7v.7h-.7ZM6.49,221.91h-.7v-.7h.7v.7ZM8.59,221.91h-.7v-.7h.7v.7ZM10.69,221.91h-.7v-.7h.7v.7ZM12.79,221.91h-.7v-.7h.7v.7ZM14.89,221.91h-.7v-.7h.7v.7ZM16.99,221.91h-.7v-.7h.7v.7ZM19.09,221.91h-.7v-.7h.7v.7ZM21.19,221.91h-.7v-.7h.7v.7ZM23.29,221.91h-.7v-.7h.7v.7ZM25.39,221.91h-.7v-.7h.7v.7ZM27.49,221.91h-.7v-.7h.7v.7ZM29.58,221.91h-.7v-.7h.7v.7ZM31.68,221.91h-.7v-.7h.7v.7ZM33.78,221.91h-.7v-.7h.7v.7ZM35.88,221.91h-.7v-.7h.7v.7ZM37.98,221.91h-.7v-.7h.7v.7ZM40.08,221.91h-.7v-.7h.7v.7ZM42.18,221.91h-.7v-.7h.7v.7ZM44.28,221.91h-.7v-.7h.7v.7ZM46.38,221.91h-.7v-.7h.7v.7ZM48.48,221.91h-.7v-.7h.7v.7ZM50.58,221.91h-.7v-.7h.7v.7ZM52.67,221.91h-.7v-.7h.7v.7ZM54.77,221.91h-.7v-.7h.7v.7ZM56.87,221.91h-.7v-.7h.7v.7ZM58.97,221.91h-.7v-.7h.7v.7ZM61.07,221.91h-.7v-.7h.7v.7ZM63.17,221.91h-.7v-.7h.7v.7ZM65.27,221.91h-.7v-.7h.7v.7ZM67.37,221.91h-.7v-.7h.7v.7ZM69.47,221.91h-.7v-.7h.7v.7ZM71.57,221.91h-.7v-.7h.7v.7ZM73.67,221.91h-.7v-.7h.7v.7ZM75.77,221.91h-.7v-.7h.7v.7ZM77.86,221.91h-.7v-.7h.7v.7ZM79.96,221.91h-.7v-.7h.7v.7ZM82.06,221.91h-.7v-.7h.7v.7ZM84.16,221.91h-.7v-.7h.7v.7ZM86.26,221.91h-.7v-.7h.7v.7ZM88.36,221.91h-.7v-.7h.7v.7ZM90.46,221.91h-.7v-.7h.7v.7ZM92.56,221.91h-.7v-.7h.7v.7ZM94.66,221.91h-.7v-.7h.7v.7ZM96.76,221.91h-.7v-.7h.7v.7ZM98.86,221.91h-.7v-.7h.7v.7ZM100.96,221.91h-.7v-.7h.7v.7ZM103.05,221.91h-.7v-.7h.7v.7ZM105.15,221.91h-.7v-.7h.7v.7ZM107.25,221.91h-.7v-.7h.7v.7ZM109.35,221.91h-.7v-.7h.7v.7ZM111.45,221.91h-.7v-.7h.7v.7ZM113.55,221.91h-.7v-.7h.7v.7ZM115.65,221.91h-.7v-.7h.7v.7ZM117.75,221.91h-.7v-.7h.7v.7ZM119.85,221.91h-.7v-.7h.7v.7ZM121.95,221.91h-.7v-.7h.7v.7ZM124.05,221.91h-.7v-.7h.7v.7ZM126.15,221.91h-.7v-.7h.7v.7ZM128.24,221.91h-.7v-.7h.7v.7ZM130.34,221.91h-.7v-.7h.7v.7ZM132.44,221.91h-.7v-.7h.7v.7ZM134.54,221.91h-.7v-.7h.7v.7ZM136.64,221.91h-.7v-.7h.7v.7ZM138.74,221.91h-.7v-.7h.7v.7ZM140.84,221.91h-.7v-.7h.7v.7ZM142.94,221.91h-.7v-.7h.7v.7ZM145.04,221.91h-.7v-.7h.7v.7ZM147.14,221.91h-.7v-.7h.7v.7ZM149.24,221.91h-.7v-.7h.7v.7ZM151.34,221.91h-.7v-.7h.7v.7ZM153.43,221.91h-.7v-.7h.7v.7ZM155.06,220.74v.7h-.7v-.7h.7ZM155.06,218.64v.7h-.7v-.7h.7ZM155.06,216.54v.7h-.7v-.7h.7ZM155.06,214.44v.7h-.7v-.7h.7ZM155.06,212.34v.7h-.7v-.7h.7ZM155.06,210.24v.7h-.7v-.7h.7ZM155.06,208.14v.7h-.7v-.7h.7ZM155.06,206.04v.7h-.7v-.7h.7ZM155.06,203.94v.7h-.7v-.7h.7ZM155.06,201.84v.7h-.7v-.7h.7ZM155.06,199.75v.7h-.7v-.7h.7ZM155.06,197.65v.7h-.7v-.7h.7ZM155.06,195.55v.7h-.7v-.7h.7ZM155.06,193.45v.7h-.7v-.7h.7ZM155.06,191.35v.7h-.7v-.7h.7ZM155.06,189.25v.7h-.7v-.7h.7ZM155.06,187.15v.7h-.7v-.7h.7ZM155.06,185.05v.7h-.7v-.7h.7ZM155.06,182.95v.7h-.7v-.7h.7ZM155.06,180.85v.7h-.7v-.7h.7ZM155.06,178.75v.7h-.7v-.7h.7ZM155.06,176.65v.7h-.7v-.7h.7ZM155.06,174.56v.7h-.7v-.7h.7ZM155.06,172.46v.7h-.7v-.7h.7ZM155.06,170.36v.7h-.7v-.7h.7ZM155.06,168.26v.7h-.7v-.7h.7ZM155.06,166.16v.7h-.7v-.7h.7ZM155.06,164.06v.7h-.7v-.7h.7ZM155.06,161.96v.7h-.7v-.7h.7ZM155.06,159.86v.7h-.7v-.7h.7ZM155.06,157.76v.7h-.7v-.7h.7ZM155.06,155.66v.7h-.7v-.7h.7ZM155.06,153.56v.7h-.7v-.7h.7ZM155.06,151.46v.7h-.7v-.7h.7ZM155.06,149.37v.7h-.7v-.7h.7ZM155.06,147.27v.7h-.7v-.7h.7ZM155.06,145.17v.7h-.7v-.7h.7ZM155.06,143.07v.7h-.7v-.7h.7ZM155.06,140.97v.7h-.7v-.7h.7ZM155.06,138.87v.7h-.7v-.7h.7ZM155.06,136.77v.7h-.7v-.7h.7ZM155.06,134.67v.7h-.7v-.7h.7ZM155.06,132.57v.7h-.7v-.7h.7ZM155.06,130.47v.7h-.7v-.7h.7ZM155.06,128.37v.7h-.7v-.7h.7ZM155.06,126.27v.7h-.7v-.7h.7ZM153.49,125.04h.7v.7h-.7v-.7ZM151.39,125.04h.7v.7h-.7v-.7ZM149.29,125.04h.7v.7h-.7v-.7ZM147.19,125.04h.7v.7h-.7v-.7ZM145.09,125.04h.7v.7h-.7v-.7ZM142.99,125.04h.7v.7h-.7v-.7ZM140.9,125.04h.7v.7h-.7v-.7ZM138.8,125.04h.7v.7h-.7v-.7ZM136.7,125.04h.7v.7h-.7v-.7ZM134.6,125.04h.7v.7h-.7v-.7ZM132.5,125.04h.7v.7h-.7v-.7ZM130.4,125.04h.7v.7h-.7v-.7ZM128.3,125.04h.7v.7h-.7v-.7ZM126.2,125.04h.7v.7h-.7v-.7ZM124.1,125.04h.7v.7h-.7v-.7ZM122,125.04h.7v.7h-.7v-.7ZM119.9,125.04h.7v.7h-.7v-.7ZM117.8,125.04h.7v.7h-.7v-.7ZM115.71,125.04h.7v.7h-.7v-.7ZM113.61,125.04h.7v.7h-.7v-.7ZM111.51,125.04h.7v.7h-.7v-.7ZM109.41,125.04h.7v.7h-.7v-.7ZM107.31,125.04h.7v.7h-.7v-.7ZM105.21,125.04h.7v.7h-.7v-.7ZM103.11,125.04h.7v.7h-.7v-.7ZM101.01,125.04h.7v.7h-.7v-.7ZM98.91,125.04h.7v.7h-.7v-.7ZM96.81,125.04h.7v.7h-.7v-.7ZM94.71,125.04h.7v.7h-.7v-.7ZM92.61,125.04h.7v.7h-.7v-.7ZM90.52,125.04h.7v.7h-.7v-.7ZM88.42,125.04h.7v.7h-.7v-.7ZM86.32,125.04h.7v.7h-.7v-.7ZM84.22,125.04h.7v.7h-.7v-.7ZM82.12,125.04h.7v.7h-.7v-.7ZM80.02,125.04h.7v.7h-.7v-.7ZM77.92,125.04h.7v.7h-.7v-.7ZM75.82,125.04h.7v.7h-.7v-.7ZM73.72,125.04h.7v.7h-.7v-.7ZM71.62,125.04h.7v.7h-.7v-.7ZM69.52,125.04h.7v.7h-.7v-.7ZM67.43,125.04h.7v.7h-.7v-.7ZM65.33,125.04h.7v.7h-.7v-.7ZM63.23,125.04h.7v.7h-.7v-.7ZM61.13,125.04h.7v.7h-.7v-.7ZM59.03,125.04h.7v.7h-.7v-.7ZM56.93,125.04h.7v.7h-.7v-.7ZM54.83,125.04h.7v.7h-.7v-.7ZM52.73,125.04h.7v.7h-.7v-.7ZM50.63,125.04h.7v.7h-.7v-.7ZM48.53,125.04h.7v.7h-.7v-.7ZM46.43,125.04h.7v.7h-.7v-.7ZM44.33,125.04h.7v.7h-.7v-.7ZM42.24,125.04h.7v.7h-.7v-.7ZM40.14,125.04h.7v.7h-.7v-.7ZM38.04,125.04h.7v.7h-.7v-.7ZM35.94,125.04h.7v.7h-.7v-.7ZM33.84,125.04h.7v.7h-.7v-.7ZM31.74,125.04h.7v.7h-.7v-.7ZM29.64,125.04h.7v.7h-.7v-.7ZM27.54,125.04h.7v.7h-.7v-.7ZM25.44,125.04h.7v.7h-.7v-.7ZM23.34,125.04h.7v.7h-.7v-.7ZM21.24,125.04h.7v.7h-.7v-.7ZM19.14,125.04h.7v.7h-.7v-.7ZM17.05,125.04h.7v.7h-.7v-.7ZM14.95,125.04h.7v.7h-.7v-.7ZM12.85,125.04h.7v.7h-.7v-.7ZM10.75,125.04h.7v.7h-.7v-.7ZM8.65,125.04h.7v.7h-.7v-.7ZM6.55,125.04h.7v.7h-.7v-.7Z"/>
    <path class="st8" d="M67.07,177.09c1.93,0,3.5,1.57,3.5,3.5v19.07c-9.02-3.69-18.03-3.69-27.05,0-9.01,3.69-18.03,3.69-27.04,0v-19.49.42c0-1.93,1.57-3.5,3.5-3.5h47.1Z"/>
    <path class="st2" d="M67.07,177.09c1.93,0,3.5,1.57,3.5,3.5v19.07c-9.02-3.69-18.03-3.69-27.05,0-9.01,3.69-18.03,3.69-27.04,0v-19.49.42c0-1.93,1.57-3.5,3.5-3.5h47.1Z"/>
    <text class="st7" transform="translate(34.37 192.48)"><tspan x="0" y="0">h1.fai</tspan></text>
    <path class="st8" d="M139.19,135.41c1.94,0,3.5,1.57,3.5,3.5v19.07c-9.01-3.69-18.03-3.69-27.04,0s-18.03,3.69-27.04,0v-19.49.42c0-1.93,1.56-3.5,3.5-3.5h47.09Z"/>
    <path class="st2" d="M139.19,135.41c1.94,0,3.5,1.57,3.5,3.5v19.07c-9.01-3.69-18.03-3.69-27.04,0s-18.03,3.69-27.04,0v-19.49.42c0-1.93,1.56-3.5,3.5-3.5h47.09Z"/>
    <text class="st6" transform="translate(108 149.79)"><tspan x="0" y="0">h2.fa</tspan></text>
    <path class="st8" d="M67.07,135.41c1.93,0,3.5,1.57,3.5,3.5v19.07c-9.02-3.69-18.03-3.69-27.05,0-9.01,3.69-18.03,3.69-27.04,0v-19.49.42c0-1.93,1.57-3.5,3.5-3.5h47.1Z"/>
    <path class="st2" d="M67.07,135.41c1.93,0,3.5,1.57,3.5,3.5v19.07c-9.02-3.69-18.03-3.69-27.05,0-9.01,3.69-18.03,3.69-27.04,0v-19.49.42c0-1.93,1.57-3.5,3.5-3.5h47.1Z"/>
    <text class="st6" transform="translate(35.93 149.79)"><tspan x="0" y="0">h1.fa</tspan></text>
    <path class="st8" d="M139.19,177.09c1.94,0,3.5,1.57,3.5,3.5v19.07c-9.01-3.69-18.03-3.69-27.04,0s-18.03,3.69-27.04,0v-19.49.42c0-1.93,1.56-3.5,3.5-3.5h47.09Z"/>
    <path class="st2" d="M139.19,177.09c1.94,0,3.5,1.57,3.5,3.5v19.07c-9.01-3.69-18.03-3.69-27.04,0s-18.03,3.69-27.04,0v-19.49.42c0-1.93,1.56-3.5,3.5-3.5h47.09Z"/>
    <text class="st7" transform="translate(107.22 192.48)"><tspan x="0" y="0">h2.fa</tspan></text>
    <text class="st5" transform="translate(22.25 217.66)"><tspan x="0" y="0">Stage haplotypes inserted in ref_genome</tspan></text>
    <path d="M43.17,281.99v-.64h1.05v.7h-.7v-.35h.35v.29h-.7ZM43.17,284.09v-.7h.7v.7h-.7ZM43.17,286.19v-.7h.7v.7h-.7ZM43.17,288.29v-.7h.7v.7h-.7ZM43.17,290.39v-.7h.7v.7h-.7ZM43.17,292.49v-.7h.7v.7h-.7ZM43.17,294.58v-.7h.7v.7h-.7ZM43.17,296.68v-.7h.7v.7h-.7ZM43.17,298.78v-.7h.7v.7h-.7ZM43.17,300.88v-.7h.7v.7h-.7ZM43.17,302.98v-.7h.7v.7h-.7ZM43.17,305.08v-.7h.7v.7h-.7ZM43.17,307.18v-.7h.7v.7h-.7ZM43.17,309.28v-.7h.7v.7h-.7ZM43.17,311.38v-.7h.7v.7h-.7ZM43.17,313.48v-.7h.7v.7h-.7ZM43.17,315.58v-.7h.7v.7h-.7ZM43.17,317.68v-.7h.7v.7h-.7ZM43.17,319.77v-.7h.7v.7h-.7ZM43.17,321.87v-.7h.7v.7h-.7ZM43.17,323.97v-.7h.7v.7h-.7ZM43.17,326.07v-.7h.7v.7h-.7ZM43.17,328.17v-.7h.7v.7h-.7ZM43.17,330.27v-.7h.7v.7h-.7ZM43.17,332.37v-.7h.7v.7h-.7ZM43.17,334.47v-.7h.7v.7h-.7ZM43.17,336.57v-.7h.7v.7h-.7ZM43.17,338.67v-.7h.7v.7h-.7ZM44.88,339.75h-.7v-.7h.7v.7ZM46.98,339.75h-.7v-.7h.7v.7ZM49.08,339.75h-.7v-.7h.7v.7ZM51.18,339.75h-.7v-.7h.7v.7ZM53.28,339.75h-.7v-.7h.7v.7ZM55.38,339.75h-.7v-.7h.7v.7ZM57.47,339.75h-.7v-.7h.7v.7ZM59.57,339.75h-.7v-.7h.7v.7ZM61.67,339.75h-.7v-.7h.7v.7ZM63.77,339.75h-.7v-.7h.7v.7ZM65.87,339.75h-.7v-.7h.7v.7ZM67.97,339.75h-.7v-.7h.7v.7ZM70.07,339.75h-.7v-.7h.7v.7ZM72.17,339.75h-.7v-.7h.7v.7ZM74.27,339.75h-.7v-.7h.7v.7ZM76.37,339.75h-.7v-.7h.7v.7ZM78.47,339.75h-.7v-.7h.7v.7ZM80.57,339.75h-.7v-.7h.7v.7ZM82.66,339.75h-.7v-.7h.7v.7ZM84.76,339.75h-.7v-.7h.7v.7ZM86.86,339.75h-.7v-.7h.7v.7ZM88.96,339.75h-.7v-.7h.7v.7ZM91.06,339.75h-.7v-.7h.7v.7ZM93.16,339.75h-.7v-.7h.7v.7ZM95.26,339.75h-.7v-.7h.7v.7ZM97.36,339.75h-.7v-.7h.7v.7ZM99.46,339.75h-.7v-.7h.7v.7ZM101.56,339.75h-.7v-.7h.7v.7ZM103.66,339.75h-.7v-.7h.7v.7ZM105.76,339.75h-.7v-.7h.7v.7ZM107.85,339.75h-.7v-.7h.7v.7ZM109.95,339.75h-.7v-.7h.7v.7ZM112.05,339.75h-.7v-.7h.7v.7ZM114.15,339.75h-.7v-.7h.7v.7ZM116.25,339.75h-.7v-.7h.7v.7ZM118.35,339.75h-.7v-.7h.7v.7ZM120.45,339.75h-.7v-.7h.7v.7ZM122.55,339.75h-.7v-.7h.7v.7ZM124.65,339.75h-.7v-.7h.7v.7ZM126.75,339.75h-.7v-.7h.7v.7ZM128.85,339.75h-.7v-.7h.7v.7ZM130.95,339.75h-.7v-.7h.7v.7ZM133.04,339.75h-.7v-.7h.7v.7ZM135.14,339.75h-.7v-.7h.7v.7ZM137.24,339.75h-.7v-.7h.7v.7ZM139.34,339.75h-.7v-.7h.7v.7ZM141.44,339.75h-.7v-.7h.7v.7ZM143.54,339.75h-.7v-.7h.7v.7ZM145.64,339.75h-.7v-.7h.7v.7ZM147.74,339.75h-.7v-.7h.7v.7ZM149.84,339.75h-.7v-.7h.7v.7ZM151.94,339.75h-.7v-.7h.7v.7ZM154.04,339.75h-.7v-.7h.7v.7ZM156.14,339.75h-.7v-.7h.7v.7ZM158.23,339.75h-.7v-.7h.7v.7ZM160.33,339.75h-.7v-.7h.7v.7ZM162.43,339.75h-.7v-.7h.7v.7ZM164.53,339.75h-.7v-.7h.7v.7ZM166.63,339.75h-.7v-.7h.7v.7ZM168.73,339.75h-.7v-.7h.7v.7ZM170.83,339.75h-.7v-.7h.7v.7ZM172.93,339.75h-.7v-.7h.7v.7ZM175.03,339.75h-.7v-.7h.7v.7ZM177.13,339.75h-.7v-.7h.7v.7ZM179.23,339.75h-.7v-.7h.7v.7ZM181.33,339.75h-.7v-.7h.7v.7ZM183.42,339.75h-.7v-.7h.7v.7ZM185.52,339.75h-.7v-.7h.7v.7ZM187.62,339.75h-.7v-.7h.7v.7ZM189.72,339.75h-.7v-.7h.7v.7ZM191.82,339.75h-.7v-.7h.7v.7ZM194.12,339.25v.5h-.9v-.7h.55v.35h-.35v-.15h.7ZM194.12,337.16v.7h-.7v-.7h.7ZM194.12,335.06v.7h-.7v-.7h.7ZM194.12,332.96v.7h-.7v-.7h.7ZM194.12,330.86v.7h-.7v-.7h.7ZM194.12,328.76v.7h-.7v-.7h.7ZM194.12,326.66v.7h-.7v-.7h.7ZM194.12,324.56v.7h-.7v-.7h.7ZM194.12,322.46v.7h-.7v-.7h.7ZM194.12,320.36v.7h-.7v-.7h.7ZM194.12,318.26v.7h-.7v-.7h.7ZM194.12,316.16v.7h-.7v-.7h.7ZM194.12,314.07v.7h-.7v-.7h.7ZM194.12,311.97v.7h-.7v-.7h.7ZM194.12,309.87v.7h-.7v-.7h.7ZM194.12,307.77v.7h-.7v-.7h.7ZM194.12,305.67v.7h-.7v-.7h.7ZM194.12,303.57v.7h-.7v-.7h.7ZM194.12,301.47v.7h-.7v-.7h.7ZM194.12,299.37v.7h-.7v-.7h.7ZM194.12,297.27v.7h-.7v-.7h.7ZM194.12,295.17v.7h-.7v-.7h.7ZM194.12,293.07v.7h-.7v-.7h.7ZM194.12,290.97v.7h-.7v-.7h.7ZM194.12,288.88v.7h-.7v-.7h.7ZM194.12,286.78v.7h-.7v-.7h.7ZM194.12,284.68v.7h-.7v-.7h.7ZM194.12,282.58v.7h-.7v-.7h.7ZM192.56,281.35h.7v.7h-.7v-.7ZM190.46,281.35h.7v.7h-.7v-.7ZM188.36,281.35h.7v.7h-.7v-.7ZM186.26,281.35h.7v.7h-.7v-.7ZM184.16,281.35h.7v.7h-.7v-.7ZM182.06,281.35h.7v.7h-.7v-.7ZM179.96,281.35h.7v.7h-.7v-.7ZM177.86,281.35h.7v.7h-.7v-.7ZM175.76,281.35h.7v.7h-.7v-.7ZM173.66,281.35h.7v.7h-.7v-.7ZM171.56,281.35h.7v.7h-.7v-.7ZM169.46,281.35h.7v.7h-.7v-.7ZM167.37,281.35h.7v.7h-.7v-.7ZM165.27,281.35h.7v.7h-.7v-.7ZM163.17,281.35h.7v.7h-.7v-.7ZM161.07,281.35h.7v.7h-.7v-.7ZM158.97,281.35h.7v.7h-.7v-.7ZM156.87,281.35h.7v.7h-.7v-.7ZM154.77,281.35h.7v.7h-.7v-.7ZM152.67,281.35h.7v.7h-.7v-.7ZM150.57,281.35h.7v.7h-.7v-.7ZM148.47,281.35h.7v.7h-.7v-.7ZM146.37,281.35h.7v.7h-.7v-.7ZM144.28,281.35h.7v.7h-.7v-.7ZM142.18,281.35h.7v.7h-.7v-.7ZM140.08,281.35h.7v.7h-.7v-.7ZM137.98,281.35h.7v.7h-.7v-.7ZM135.88,281.35h.7v.7h-.7v-.7ZM133.78,281.35h.7v.7h-.7v-.7ZM131.68,281.35h.7v.7h-.7v-.7ZM129.58,281.35h.7v.7h-.7v-.7ZM127.48,281.35h.7v.7h-.7v-.7ZM125.38,281.35h.7v.7h-.7v-.7ZM123.28,281.35h.7v.7h-.7v-.7ZM121.18,281.35h.7v.7h-.7v-.7ZM119.09,281.35h.7v.7h-.7v-.7ZM116.99,281.35h.7v.7h-.7v-.7ZM114.89,281.35h.7v.7h-.7v-.7ZM112.79,281.35h.7v.7h-.7v-.7ZM110.69,281.35h.7v.7h-.7v-.7ZM108.59,281.35h.7v.7h-.7v-.7ZM106.49,281.35h.7v.7h-.7v-.7ZM104.39,281.35h.7v.7h-.7v-.7ZM102.29,281.35h.7v.7h-.7v-.7ZM100.19,281.35h.7v.7h-.7v-.7ZM98.09,281.35h.7v.7h-.7v-.7ZM95.99,281.35h.7v.7h-.7v-.7ZM93.9,281.35h.7v.7h-.7v-.7ZM91.8,281.35h.7v.7h-.7v-.7ZM89.7,281.35h.7v.7h-.7v-.7ZM87.6,281.35h.7v.7h-.7v-.7ZM85.5,281.35h.7v.7h-.7v-.7ZM83.4,281.35h.7v.7h-.7v-.7ZM81.3,281.35h.7v.7h-.7v-.7ZM79.2,281.35h.7v.7h-.7v-.7ZM77.1,281.35h.7v.7h-.7v-.7ZM75,281.35h.7v.7h-.7v-.7ZM72.9,281.35h.7v.7h-.7v-.7ZM70.8,281.35h.7v.7h-.7v-.7ZM68.71,281.35h.7v.7h-.7v-.7ZM66.61,281.35h.7v.7h-.7v-.7ZM64.51,281.35h.7v.7h-.7v-.7ZM62.41,281.35h.7v.7h-.7v-.7ZM60.31,281.35h.7v.7h-.7v-.7ZM58.21,281.35h.7v.7h-.7v-.7ZM56.11,281.35h.7v.7h-.7v-.7ZM54.01,281.35h.7v.7h-.7v-.7ZM51.91,281.35h.7v.7h-.7v-.7ZM49.81,281.35h.7v.7h-.7v-.7ZM47.71,281.35h.7v.7h-.7v-.7ZM45.61,281.35h.7v.7h-.7v-.7Z"/>
    <path class="st8" d="M106.74,292.41c1.93,0,3.5,1.57,3.5,3.5v19.07c-9.02-3.69-18.03-3.69-27.04,0-9.02,3.69-18.03,3.69-27.05,0v-19.49.42c0-1.93,1.57-3.5,3.5-3.5h47.1Z"/>
    <path class="st2" d="M106.74,292.41c1.93,0,3.5,1.57,3.5,3.5v19.07c-9.02-3.69-18.03-3.69-27.04,0-9.02,3.69-18.03,3.69-27.05,0v-19.49.42c0-1.93,1.57-3.5,3.5-3.5h47.1Z"/>
    <text class="st6" transform="translate(68.11 307.93)"><tspan x="0" y="0">stage.bam</tspan></text>
    <path class="st8" d="M178.26,292.41c1.93,0,3.5,1.57,3.5,3.5v19.07c-9.02-3.69-18.03-3.69-27.05,0-9.01,3.69-18.03,3.69-27.04,0v-19.49.42c0-1.93,1.57-3.5,3.5-3.5h47.1Z"/>
    <path class="st2" d="M178.26,292.41c1.93,0,3.5,1.57,3.5,3.5v19.07c-9.02-3.69-18.03-3.69-27.05,0-9.01,3.69-18.03,3.69-27.04,0v-19.49.42c0-1.93,1.57-3.5,3.5-3.5h47.1Z"/>
    <text class="st6" transform="translate(134.4 307.23)"><tspan x="0" y="0">stage.bam.bai</tspan></text>
    <text class="st5" transform="translate(64.42 335.22)"><tspan x="0" y="0">ONT sequencing reads with stage SVs</tspan></text>
    <polyline class="st2" points="208.8 374.07 208.84 407.5 151.65 407.48"/>
    <polygon points="147.98 407.48 152.88 405.03 151.65 407.48 152.87 409.93 147.98 407.48"/>
    <polygon class="st2" points="147.98 407.48 152.88 405.03 151.65 407.48 152.87 409.93 147.98 407.48"/>
    <polyline class="st2" points="28.49 374.07 28.52 416.66 79.64 416.66"/>
    <polygon points="83.31 416.66 78.41 419.11 79.64 416.66 78.41 414.22 83.31 416.66"/>
    <polygon class="st2" points="83.31 416.66 78.41 419.11 79.64 416.66 78.41 414.22 83.31 416.66"/>
    <path class="st8" d="M143.7,394.65c1.93,0,3.5,1.57,3.5,3.5v19.07c-9.02-3.69-18.03-3.69-27.05,0-9.01,3.69-18.03,3.69-27.04,0v-19.49.42c0-1.93,1.57-3.5,3.5-3.5h47.1Z"/>
    <path class="st2" d="M143.7,394.65c1.93,0,3.5,1.57,3.5,3.5v19.07c-9.02-3.69-18.03-3.69-27.05,0-9.01,3.69-18.03,3.69-27.04,0v-19.49.42c0-1.93,1.57-3.5,3.5-3.5h47.1Z"/>
    <path class="st8" d="M140.69,397.86c1.93,0,3.5,1.56,3.5,3.5v19.07c-9.02-3.69-18.03-3.69-27.04,0-9.02,3.69-18.03,3.69-27.05,0v-19.49.43c0-1.94,1.57-3.5,3.5-3.5h47.1Z"/>
    <path class="st2" d="M140.69,397.86c1.93,0,3.5,1.56,3.5,3.5v19.07c-9.02-3.69-18.03-3.69-27.04,0-9.02,3.69-18.03,3.69-27.05,0v-19.49.43c0-1.94,1.57-3.5,3.5-3.5h47.1Z"/>
    <path class="st8" d="M137.69,401.07c1.93,0,3.5,1.57,3.5,3.5v19.07c-9.02-3.69-18.03-3.69-27.05,0-9.01,3.69-18.03,3.69-27.04,0v-19.49.43c0-1.93,1.57-3.5,3.5-3.5h47.1Z"/>
    <path class="st2" d="M137.69,401.07c1.93,0,3.5,1.57,3.5,3.5v19.07c-9.02-3.69-18.03-3.69-27.05,0-9.01,3.69-18.03,3.69-27.04,0v-19.49.43c0-1.93,1.57-3.5,3.5-3.5h47.1Z"/>
    <path class="st8" d="M134.68,404.27c1.94,0,3.5,1.57,3.5,3.5v18.31c-9.01-3.57-18.03-3.57-27.04,0-9.02,3.57-18.03,3.57-27.05,0v-18.84.53c0-1.93,1.57-3.5,3.5-3.5h47.1Z"/>
    <path class="st2" d="M134.68,404.27c1.94,0,3.5,1.57,3.5,3.5v18.31c-9.01-3.57-18.03-3.57-27.04,0-9.02,3.57-18.03,3.57-27.05,0v-18.84.53c0-1.93,1.57-3.5,3.5-3.5h47.1Z"/>
    <text class="st6" transform="translate(87.01 418.48)"><tspan x="0" y="0">somatic_calls.vcf</tspan></text>
    <polyline class="st2" points="88.6 374.07 88.63 387.56 100.59 387.56 100.61 396.61"/>
    <polygon points="100.61 400.28 98.16 395.39 100.61 396.61 103.05 395.38 100.61 400.28"/>
    <polygon class="st2" points="100.61 400.28 98.16 395.39 100.61 396.61 103.05 395.38 100.61 400.28"/>
    <polyline class="st2" points="148.7 374.07 148.73 385.95 130.68 385.95 130.67 393.41"/>
    <polygon points="130.67 397.08 128.22 392.17 130.67 393.41 133.12 392.18 130.67 397.08"/>
    <polygon class="st2" points="130.67 397.08 128.22 392.17 130.67 393.41 133.12 392.18 130.67 397.08"/>
  </g>
</svg>